<svg width="32" height="32" version="1.1" id="mono-logo-svg" xmlns="http://www.w3.org/2000/svg" xmlns:svg="http://www.w3.org/2000/svg"><script xmlns=""/>
  <g id="mono-logo" transform="translate(0,4.5)">
    <g id="mono-logo-m1">
      <path d="m 0,0 v 21 c 0,2.485 2.015,4.5 4.5,4.5 C 6.985,25.5 9,23.485 9,21 V 0 C 9,-2.485 6.985,-4.5 4.5,-4.5 2.015,-4.5 0,-2.485 0,0" style="fill:#000000"/>
    </g>
    <g id="mono-logo-m2" transform="translate(10.25,0)">
      <path d="m 0,0 v 21 c 0,2.485 2.015,4.5 4.5,4.5 C 6.985,25.5 9,23.485 9,21 V 0 C 9,-2.485 6.985,-4.5 4.5,-4.5 2.015,-4.5 0,-2.485 0,0" style="fill:#000000"/>
    </g>
    <g id="mono-logo-m3" transform="translate(20.5,0)">
      <path d="m 0,0 v 21 c 0,2.485 2.015,4.5 4.5,4.5 C 6.985,25.5 9,23.485 9,21 V 0 C 9,-2.485 6.985,-4.5 4.5,-4.5 2.015,-4.5 0,-2.485 0,0" style="fill:#000000"/>
    </g>
  </g>
</svg>
